<svg width="34" height="35" viewBox="0 0 34 35" fill="none" xmlns="http://www.w3.org/2000/svg">
<path d="M24.084 3.5127H9.91732C6.00732 3.5127 2.83398 6.67186 2.83398 10.5677V19.0394V20.456C2.83398 24.3519 6.00732 27.511 9.91732 27.511H12.0423C12.4248 27.511 12.9348 27.766 13.1757 28.0777L15.3007 30.8969C16.2357 32.1435 17.7657 32.1435 18.7007 30.8969L20.8257 28.0777C21.0948 27.7235 21.5198 27.511 21.959 27.511H24.084C27.994 27.511 31.1673 24.3519 31.1673 20.456V10.5677C31.1673 6.67186 27.994 3.5127 24.084 3.5127ZM11.334 17.6794C10.5407 17.6794 9.91732 17.0419 9.91732 16.2627C9.91732 15.4835 10.5548 14.846 11.334 14.846C12.1132 14.846 12.7507 15.4835 12.7507 16.2627C12.7507 17.0419 12.1273 17.6794 11.334 17.6794ZM17.0007 17.6794C16.2073 17.6794 15.584 17.0419 15.584 16.2627C15.584 15.4835 16.2215 14.846 17.0007 14.846C17.7798 14.846 18.4173 15.4835 18.4173 16.2627C18.4173 17.0419 17.794 17.6794 17.0007 17.6794ZM22.6673 17.6794C21.874 17.6794 21.2507 17.0419 21.2507 16.2627C21.2507 15.4835 21.8882 14.846 22.6673 14.846C23.4465 14.846 24.084 15.4835 24.084 16.2627C24.084 17.0419 23.4607 17.6794 22.6673 17.6794Z" fill="white"/>
</svg>
