<svg width="18" height="18" viewBox="0 0 18 18" fill="none" xmlns="http://www.w3.org/2000/svg">
<g clip-path="url(#clip0_455_11220)">
<path fill-rule="evenodd" clip-rule="evenodd" d="M8.25 15C8.25 15.4142 8.58577 15.75 9 15.75C9.41423 15.75 9.75 15.4142 9.75 15V9.75H15C15.4142 9.75 15.75 9.41423 15.75 9C15.75 8.58577 15.4142 8.25 15 8.25H9.75V3C9.75 2.58578 9.41423 2.25 9 2.25C8.58577 2.25 8.25 2.58578 8.25 3V8.25H3C2.58579 8.25 2.25 8.58577 2.25 9C2.25 9.41423 2.58579 9.75 3 9.75H8.25V15Z" fill="white"/>
</g>
<defs>
<clipPath id="clip0_455_11220">
<rect width="18" height="18" fill="white"/>
</clipPath>
</defs>
</svg>
