<svg width="28" height="29" viewBox="0 0 28 29" fill="none" xmlns="http://www.w3.org/2000/svg">
<rect y="0.896973" width="28" height="28" rx="14" fill="black" fill-opacity="0.3"/>
<path d="M16.6921 11.639V10.7775C16.6921 8.10311 14.8344 7.08003 12.5728 8.49798L9.95231 10.1403C9.66513 10.3108 9.33308 10.4095 9.00103 10.4095H7.7177C5.92283 10.4095 5.02539 11.307 5.02539 13.1018V16.6916C5.02539 18.4864 5.92283 19.3839 7.7177 19.3839H9.51257" stroke="white" stroke-width="1.34615" stroke-linecap="round" stroke-linejoin="round"/>
<path d="M12.5742 21.2952C14.8358 22.7131 16.6935 21.6811 16.6935 19.0157V15.749" stroke="white" stroke-width="1.34615" stroke-linecap="round" stroke-linejoin="round"/>
<path d="M20.1117 12.5815C20.9194 14.511 20.6771 16.7636 19.3848 18.4867" stroke="white" stroke-width="1.34615" stroke-linecap="round" stroke-linejoin="round"/>
<path d="M22.212 11.1274C23.5312 14.2595 23.1363 17.921 21.0273 20.73" stroke="white" stroke-width="1.34615" stroke-linecap="round" stroke-linejoin="round"/>
<path d="M21.8304 7.06445L6.16602 22.7288" stroke="white" stroke-width="1.34615" stroke-linecap="round" stroke-linejoin="round"/>
</svg>
