<svg width="81" height="81" viewBox="0 0 81 81" fill="none" xmlns="http://www.w3.org/2000/svg">
<g opacity="0.3">
<path d="M50.8723 17.5721C45.0266 14.239 40.4858 11.6499 36.7981 9.97035C33.0965 8.28447 29.8834 7.33241 26.7591 7.65671C21.8005 8.1714 17.2864 10.7407 14.3447 14.7393C12.4865 17.265 11.7129 20.5068 11.3401 24.5201C10.9687 28.5174 10.9687 33.6982 10.9688 40.3611V40.6388C10.9687 47.3016 10.9687 52.4825 11.3401 56.4798C11.7129 60.4931 12.4865 63.7348 14.3447 66.2605C17.2864 70.2592 21.8005 72.8285 26.7591 73.3432C29.8834 73.6675 33.0965 72.7154 36.7981 71.0295C40.4858 69.3499 45.0265 66.7609 50.8721 63.4278L51.1094 63.2925C56.9547 59.9597 61.4956 57.3706 64.8128 55.0561C68.1394 52.735 70.5915 50.4571 71.8772 47.6051C73.9159 43.0831 73.9159 37.9168 71.8772 33.3947C70.5915 30.5427 68.1394 28.2648 64.8128 25.9437C61.4956 23.6292 56.9547 21.0401 51.1094 17.7073L50.8723 17.5721Z" fill="white"/>
</g>
</svg>
