<svg width="34" height="33" viewBox="0 0 34 33" fill="none" xmlns="http://www.w3.org/2000/svg">
<path d="M30.3964 16.8974C30.3964 9.51545 24.381 3.5 16.999 3.5C9.61701 3.5 3.60156 9.51545 3.60156 16.8974C3.60156 20.7827 5.27624 24.2794 7.92893 26.7312C7.92893 26.7446 7.92893 26.7446 7.91554 26.7579C8.04951 26.8919 8.21028 26.9991 8.34425 27.1197C8.42464 27.1867 8.49163 27.2537 8.57201 27.3072C8.81317 27.5082 9.08111 27.6958 9.33567 27.8833C9.42945 27.9503 9.50983 28.0039 9.60361 28.0709C9.85817 28.2451 10.1261 28.4058 10.4075 28.5532C10.5012 28.6068 10.6084 28.6738 10.7022 28.7274C10.9702 28.8747 11.2515 29.0087 11.5462 29.1293C11.6534 29.1829 11.7606 29.2365 11.8678 29.2767C12.1625 29.3972 12.4573 29.5044 12.752 29.5982C12.8592 29.6384 12.9664 29.6786 13.0735 29.7054C13.3951 29.7992 13.7166 29.8796 14.0382 29.9599C14.1319 29.9867 14.2257 30.0135 14.3329 30.0269C14.708 30.1073 15.0832 30.1609 15.4717 30.2011C15.5253 30.2011 15.5789 30.2145 15.6325 30.2279C16.088 30.2681 16.5435 30.2949 16.999 30.2949C17.4545 30.2949 17.91 30.2681 18.3521 30.2279C18.4057 30.2279 18.4593 30.2145 18.5129 30.2011C18.9014 30.1609 19.2766 30.1073 19.6517 30.0269C19.7455 30.0135 19.8393 29.9733 19.9464 29.9599C20.268 29.8796 20.6029 29.8126 20.9111 29.7054C21.0182 29.6652 21.1254 29.625 21.2326 29.5982C21.5273 29.491 21.8355 29.3972 22.1168 29.2767C22.224 29.2365 22.3312 29.1829 22.4384 29.1293C22.7197 29.0087 23.0011 28.8747 23.2824 28.7274C23.3896 28.6738 23.4834 28.6068 23.5771 28.5532C23.8451 28.3924 24.113 28.2451 24.381 28.0709C24.4748 28.0173 24.5552 27.9503 24.6489 27.8833C24.9169 27.6958 25.1714 27.5082 25.4126 27.3072C25.493 27.2403 25.56 27.1733 25.6403 27.1197C25.7877 26.9991 25.9351 26.8785 26.0691 26.7579C26.0691 26.7446 26.0691 26.7446 26.0557 26.7312C28.7218 24.2794 30.3964 20.7827 30.3964 16.8974ZM23.6173 23.556C19.9866 21.1176 14.0382 21.1176 10.3807 23.556C9.79118 23.9445 9.30887 24.4 8.90695 24.8957C6.87054 22.8325 5.61118 20.0056 5.61118 16.8974C5.61118 10.614 10.7156 5.50962 16.999 5.50962C23.2824 5.50962 28.3868 10.614 28.3868 16.8974C28.3868 20.0056 27.1275 22.8325 25.0911 24.8957C24.7025 24.4 24.2068 23.9445 23.6173 23.556Z" fill="white"/>
<path d="M16.9986 10.105C14.2254 10.105 11.9746 12.3558 11.9746 15.129C11.9746 17.8487 14.1048 20.0593 16.9317 20.1397C16.9719 20.1397 17.0254 20.1397 17.0522 20.1397C17.079 20.1397 17.1192 20.1397 17.146 20.1397C17.1594 20.1397 17.1728 20.1397 17.1728 20.1397C19.8791 20.0459 22.0093 17.8487 22.0227 15.129C22.0227 12.3558 19.7719 10.105 16.9986 10.105Z" fill="white"/>
</svg>
