<svg width="18" height="18" viewBox="0 0 18 18" fill="none" xmlns="http://www.w3.org/2000/svg">
<path d="M9.63331 15.6828C9.32641 15.7739 8.99969 15.7739 8.69279 15.6828C6.49317 14.9244 1.57815 11.7994 1.57815 6.48995C1.57616 5.93451 1.68371 5.38413 1.89466 4.87029C2.1056 4.35646 2.41581 3.88926 2.80752 3.49544C3.19922 3.10162 3.66473 2.78893 4.17742 2.57522C4.69011 2.36151 5.23991 2.25099 5.79535 2.25C6.44952 2.25088 7.09448 2.4042 7.67906 2.69781C8.26363 2.99141 8.77173 3.4172 9.16305 3.94142C9.55437 3.4172 10.0625 2.99141 10.647 2.69781C11.2316 2.4042 11.8766 2.25088 12.5307 2.25C13.0862 2.25099 13.636 2.36151 14.1487 2.57522C14.6614 2.78893 15.1269 3.10162 15.5186 3.49544C15.9103 3.88926 16.2205 4.35646 16.4314 4.87029C16.6424 5.38413 16.7499 5.93451 16.7479 6.48995C16.7479 11.7994 11.8329 14.9319 9.63331 15.6828Z" fill="#FF4755"/>
</svg>
