<svg width="34" height="34" viewBox="0 0 34 34" fill="none" xmlns="http://www.w3.org/2000/svg">
<path d="M24.084 2.8335H9.91732C6.00732 2.8335 2.83398 5.99266 2.83398 9.8885V18.3602V19.7768C2.83398 23.6727 6.00732 26.8318 9.91732 26.8318H12.0423C12.4248 26.8318 12.9348 27.0868 13.1757 27.3985L15.3007 30.2177C16.2357 31.4643 17.7657 31.4643 18.7007 30.2177L20.8257 27.3985C21.0948 27.0443 21.5198 26.8318 21.959 26.8318H24.084C27.994 26.8318 31.1673 23.6727 31.1673 19.7768V9.8885C31.1673 5.99266 27.994 2.8335 24.084 2.8335ZM11.334 17.0002C10.5407 17.0002 9.91732 16.3627 9.91732 15.5835C9.91732 14.8043 10.5548 14.1668 11.334 14.1668C12.1132 14.1668 12.7507 14.8043 12.7507 15.5835C12.7507 16.3627 12.1273 17.0002 11.334 17.0002ZM17.0007 17.0002C16.2073 17.0002 15.584 16.3627 15.584 15.5835C15.584 14.8043 16.2215 14.1668 17.0007 14.1668C17.7798 14.1668 18.4173 14.8043 18.4173 15.5835C18.4173 16.3627 17.794 17.0002 17.0007 17.0002ZM22.6673 17.0002C21.874 17.0002 21.2507 16.3627 21.2507 15.5835C21.2507 14.8043 21.8882 14.1668 22.6673 14.1668C23.4465 14.1668 24.084 14.8043 24.084 15.5835C24.084 16.3627 23.4607 17.0002 22.6673 17.0002Z" fill="white"/>
</svg>
