<svg width="20" height="20" viewBox="0 0 20 20" fill="none" xmlns="http://www.w3.org/2000/svg">
<circle cx="10" cy="10" r="10" fill="#FF4755"/>
<path fill-rule="evenodd" clip-rule="evenodd" d="M10 5C10.5917 5 11.0714 5.47969 11.0714 6.07143V8.92857H13.9286C14.5203 8.92857 15 9.40827 15 10V10C15 10.5917 14.5203 11.0714 13.9286 11.0714H11.0714V13.9286C11.0714 14.5203 10.5917 15 10 15V15C9.40827 15 8.92857 14.5203 8.92857 13.9286V11.0714H6.07143C5.47969 11.0714 5 10.5917 5 10V10C5 9.40827 5.47969 8.92857 6.07143 8.92857H8.92857V6.07143C8.92857 5.47969 9.40827 5 10 5V5Z" fill="white"/>
</svg>
