<svg width="34" height="34" viewBox="0 0 34 34" fill="none" xmlns="http://www.w3.org/2000/svg">
<path d="M29.5127 16.2019L17.6386 6.25399C17.4808 6.12116 17.2883 6.03624 17.0838 6.00928C16.8793 5.98231 16.6713 6.01441 16.4844 6.1018C16.2976 6.18919 16.1396 6.32821 16.0292 6.50245C15.9188 6.6767 15.8605 6.87889 15.8613 7.08517L15.8888 12.7172C9.61304 14.4671 5.27589 18.6505 4.02224 26.7161C3.83725 28.0797 4.84592 28.4472 5.57711 27.7898C8.88935 24.43 12.3266 22.3127 15.9338 21.9077L15.9588 27.0811C15.9593 27.2855 16.0178 27.4856 16.1274 27.6582C16.237 27.8309 16.3932 27.9689 16.578 28.0564C16.7628 28.1439 16.9686 28.1773 17.1716 28.1526C17.3745 28.128 17.5664 28.0464 17.7249 27.9172L29.4989 18.3005C29.6543 18.1738 29.7798 18.0144 29.8664 17.8335C29.953 17.6527 29.9987 17.455 30 17.2545C30.0013 17.054 29.9583 16.8557 29.874 16.6737C29.7898 16.4918 29.6664 16.3307 29.5127 16.2019Z" fill="white"/>
</svg>
